<svg xmlns="http://www.w3.org/2000/svg" viewBox="0 0 1280 920" font-family="Segoe UI, -apple-system, sans-serif">
  <defs>
    <marker id="arr" markerWidth="8" markerHeight="6" refX="8" refY="3" orient="auto"><polygon points="0 0,8 3,0 6" fill="#4B5563"/></marker>
    <marker id="arrBlue" markerWidth="8" markerHeight="6" refX="8" refY="3" orient="auto"><polygon points="0 0,8 3,0 6" fill="#2563EB"/></marker>
    <marker id="arrGreen" markerWidth="8" markerHeight="6" refX="8" refY="3" orient="auto"><polygon points="0 0,8 3,0 6" fill="#059669"/></marker>
    <marker id="arrRed" markerWidth="8" markerHeight="6" refX="8" refY="3" orient="auto"><polygon points="0 0,8 3,0 6" fill="#DC2626"/></marker>
    <marker id="arrPurple" markerWidth="8" markerHeight="6" refX="8" refY="3" orient="auto"><polygon points="0 0,8 3,0 6" fill="#7C3AED"/></marker>
    <filter id="sh"><feDropShadow dx="0" dy="1" stdDeviation="2" flood-opacity="0.08"/></filter>
  </defs>

  <!-- Background -->
  <rect width="1280" height="920" fill="#FAFBFC" rx="0"/>

  <!-- Title -->
  <text x="640" y="36" text-anchor="middle" font-size="20" font-weight="700" fill="#111827">Backup &amp; Resiliency on Microsoft Agent Framework</text>
  <text x="640" y="56" text-anchor="middle" font-size="11" fill="#6B7280">Agent-Driven Workflow · MCP Tools · Human-in-the-Loop · Checkpointing · Graceful Degradation</text>

  <!-- ═══════ ROW 1: Frontend → API ═══════ -->

  <!-- End Users -->
  <text x="48" y="102" font-size="20">👤</text>
  <text x="48" y="120" font-size="9" fill="#6B7280" text-anchor="middle">End Users</text>
  <circle cx="82" cy="98" r="10" fill="#7C3AED" stroke="#fff" stroke-width="1.5"/>
  <text x="82" y="102" text-anchor="middle" font-size="8" font-weight="700" fill="#fff">1</text>
  <line x1="92" y1="98" x2="138" y2="98" stroke="#7C3AED" stroke-width="1.5" marker-end="url(#arrPurple)"/>

  <!-- React Frontend -->
  <rect x="140" y="78" width="180" height="42" rx="6" fill="#fff" stroke="#2563EB" stroke-width="1.5" filter="url(#sh)"/>
  <text x="230" y="96" text-anchor="middle" font-size="11" font-weight="600" fill="#2563EB">React Frontend</text>
  <text x="230" y="110" text-anchor="middle" font-size="9" fill="#6B7280">SPA · SSE Events · HITL Screens</text>

  <circle cx="344" cy="98" r="10" fill="#2563EB" stroke="#fff" stroke-width="1.5"/>
  <text x="344" y="102" text-anchor="middle" font-size="8" font-weight="700" fill="#fff">2</text>
  <line x1="354" y1="98" x2="398" y2="98" stroke="#2563EB" stroke-width="1.5" marker-end="url(#arrBlue)"/>
  <text x="376" y="91" text-anchor="middle" font-size="8" fill="#6B7280">SSE</text>

  <!-- FastAPI Backend -->
  <rect x="400" y="78" width="200" height="42" rx="6" fill="#fff" stroke="#059669" stroke-width="1.5" filter="url(#sh)"/>
  <text x="500" y="96" text-anchor="middle" font-size="11" font-weight="600" fill="#059669">⚡ FastAPI Backend</text>
  <text x="500" y="110" text-anchor="middle" font-size="9" fill="#6B7280">REST API · Session Mgmt · SSE Stream</text>

  <circle cx="624" cy="98" r="10" fill="#059669" stroke="#fff" stroke-width="1.5"/>
  <text x="624" y="102" text-anchor="middle" font-size="8" font-weight="700" fill="#fff">3</text>
  <line x1="634" y1="98" x2="680" y2="98" stroke="#059669" stroke-width="1.5" marker-end="url(#arrGreen)"/>

  <!-- FileCheckpointStorage -->
  <rect x="682" y="78" width="185" height="42" rx="6" fill="#fff" stroke="#F59E0B" stroke-width="1.5" filter="url(#sh)"/>
  <text x="774" y="96" text-anchor="middle" font-size="11" font-weight="600" fill="#92400E">💾 FileCheckpointStorage</text>
  <text x="774" y="110" text-anchor="middle" font-size="9" fill="#6B7280">backup_checkpoints/*.json</text>

  <!-- AzureCliCredential -->
  <rect x="920" y="78" width="160" height="42" rx="6" fill="#fff" stroke="#7C3AED" stroke-width="1.5" filter="url(#sh)"/>
  <text x="1000" y="96" text-anchor="middle" font-size="11" font-weight="600" fill="#7C3AED">🔐 AzureCliCredential</text>
  <text x="1000" y="110" text-anchor="middle" font-size="9" fill="#6B7280">Foundry Auth</text>

  <!-- ═══════ WORKFLOW DAG AREA ═══════ -->

  <rect x="30" y="140" width="870" height="380" rx="10" fill="none" stroke="#2563EB" stroke-width="1.5" stroke-dasharray="6 3"/>
  <rect x="40" y="132" width="240" height="18" rx="4" fill="#EFF6FF"/>
  <text x="50" y="145" font-size="10" font-weight="600" fill="#2563EB">🔄  WORKFLOW DAG  ·  WorkflowBuilder  ·  max_iterations=50</text>

  <!-- Step 1: Source Selector -->
  <rect x="55" y="170" width="250" height="72" rx="8" fill="#EFF6FF" stroke="#2563EB" stroke-width="1.2" filter="url(#sh)"/>
  <circle cx="70" cy="182" r="9" fill="#2563EB"/>
  <text x="70" y="186" text-anchor="middle" font-size="8" font-weight="700" fill="#fff">1</text>
  <text x="85" y="186" font-size="11" font-weight="600" fill="#1E40AF">SourceSelector</text>
  <rect x="230" y="175" width="66" height="15" rx="3" fill="#7C3AED"/>
  <text x="263" y="185" text-anchor="middle" font-size="7" font-weight="600" fill="#fff">AI AGENT</text>
  <text x="65" y="205" font-size="9" fill="#4B5563">Screen: select_source</text>
  <text x="65" y="218" font-size="8" fill="#6B7280">AWS · Azure · GCP · M365 · Google Workspace</text>
  <text x="65" y="231" font-size="8" fill="#7C3AED">↳ source_selector_ai</text>

  <!-- Arrow 1→2 -->
  <line x1="305" y1="206" x2="340" y2="206" stroke="#4B5563" stroke-width="1.2" marker-end="url(#arr)"/>

  <!-- Step 2: Source Configurator -->
  <rect x="345" y="170" width="250" height="72" rx="8" fill="#F5F3FF" stroke="#7C3AED" stroke-width="1.2" filter="url(#sh)"/>
  <circle cx="360" cy="182" r="9" fill="#7C3AED"/>
  <text x="360" y="186" text-anchor="middle" font-size="8" font-weight="700" fill="#fff">2</text>
  <text x="375" y="186" font-size="11" font-weight="600" fill="#5B21B6">SourceConfigurator</text>
  <rect x="520" y="175" width="66" height="15" rx="3" fill="#7C3AED"/>
  <text x="553" y="185" text-anchor="middle" font-size="7" font-weight="600" fill="#fff">AI AGENT</text>
  <text x="355" y="205" font-size="9" fill="#4B5563">Screen: source_details</text>
  <text x="355" y="218" font-size="8" fill="#6B7280">Credentials · Discovery Toggles · CYERA</text>
  <text x="355" y="231" font-size="8" fill="#7C3AED">↳ source_configurator_ai</text>

  <!-- Arrow 2→3 -->
  <line x1="595" y1="206" x2="634" y2="206" stroke="#4B5563" stroke-width="1.2" marker-end="url(#arr)"/>

  <!-- Step 3: Discovery Runner -->
  <rect x="640" y="170" width="250" height="72" rx="8" fill="#ECFDF5" stroke="#059669" stroke-width="1.2" filter="url(#sh)"/>
  <circle cx="655" cy="182" r="9" fill="#059669"/>
  <text x="655" y="186" text-anchor="middle" font-size="8" font-weight="700" fill="#fff">3</text>
  <text x="670" y="186" font-size="11" font-weight="600" fill="#047857">DiscoveryRunner</text>
  <rect x="815" y="175" width="66" height="15" rx="3" fill="#7C3AED"/>
  <text x="848" y="185" text-anchor="middle" font-size="7" font-weight="600" fill="#fff">AI AGENT</text>
  <text x="650" y="205" font-size="9" fill="#4B5563">Screen: data_discovered</text>
  <text x="650" y="218" font-size="8" fill="#6B7280">Objects · Apps · Sensitivity · Exposure</text>
  <text x="650" y="231" font-size="8" fill="#7C3AED">↳ discovery_analyst_ai</text>

  <!-- Arrow 3→4 (down) -->
  <path d="M765 242 L765 270 L180 270 L180 290" stroke="#4B5563" stroke-width="1.2" fill="none" marker-end="url(#arr)"/>

  <!-- Step 4: Protection Advisor -->
  <rect x="55" y="295" width="380" height="82" rx="8" fill="#FFFBEB" stroke="#D97706" stroke-width="1.2" filter="url(#sh)"/>
  <circle cx="70" cy="308" r="9" fill="#D97706"/>
  <text x="70" y="312" text-anchor="middle" font-size="8" font-weight="700" fill="#fff">4</text>
  <text x="85" y="312" font-size="11" font-weight="600" fill="#92400E">ProtectionAdvisor</text>
  <rect x="350" y="300" width="76" height="15" rx="3" fill="#7C3AED"/>
  <text x="388" y="310" text-anchor="middle" font-size="7" font-weight="600" fill="#fff">AI AGENT</text>
  <text x="65" y="332" font-size="9" fill="#4B5563">Screen: protection_advisor</text>
  <text x="65" y="345" font-size="8" fill="#6B7280">SmartProtect Rules · Threat Monitoring · Resilience Orchestration</text>
  <text x="65" y="358" font-size="8" fill="#7C3AED">↳ protection_advisor_ai</text>
  <text x="65" y="370" font-size="8" fill="#059669">MCP → list_application_groups</text>

  <!-- Arrow 4→5 -->
  <line x1="435" y1="336" x2="475" y2="336" stroke="#4B5563" stroke-width="1.2" marker-end="url(#arr)"/>

  <!-- Step 5: Resiliency Planner -->
  <rect x="480" y="295" width="380" height="82" rx="8" fill="#FEF2F2" stroke="#DC2626" stroke-width="1.2" filter="url(#sh)"/>
  <circle cx="495" cy="308" r="9" fill="#DC2626"/>
  <text x="495" y="312" text-anchor="middle" font-size="8" font-weight="700" fill="#fff">5</text>
  <text x="510" y="312" font-size="11" font-weight="600" fill="#991B1B">ResiliencyPlanner</text>
  <rect x="775" y="300" width="76" height="15" rx="3" fill="#7C3AED"/>
  <text x="813" y="310" text-anchor="middle" font-size="7" font-weight="600" fill="#fff">AI AGENT</text>
  <text x="490" y="332" font-size="9" fill="#4B5563">Screen: resiliency_plan</text>
  <text x="490" y="345" font-size="8" fill="#6B7280">Inventory · 3-2-1 Policy · Cyber Recoverability Blueprints</text>
  <text x="490" y="358" font-size="8" fill="#7C3AED">↳ resiliency_planner_ai</text>
  <text x="490" y="370" font-size="8" fill="#059669">MCP → 5 parallel calls (inventory, plan, policy, blueprints)</text>

  <!-- Arrow 5→6 (down) -->
  <path d="M670 377 L670 405 L370 405 L370 420" stroke="#4B5563" stroke-width="1.2" fill="none" marker-end="url(#arr)"/>

  <!-- Step 6: Approval Gateway -->
  <rect x="210" y="425" width="380" height="82" rx="8" fill="#ECFEFF" stroke="#0891B2" stroke-width="1.2" filter="url(#sh)"/>
  <circle cx="225" cy="438" r="9" fill="#0891B2"/>
  <text x="225" y="442" text-anchor="middle" font-size="8" font-weight="700" fill="#fff">6</text>
  <text x="240" y="442" font-size="11" font-weight="600" fill="#155E75">ApprovalGateway</text>
  <rect x="515" y="430" width="66" height="15" rx="3" fill="#7C3AED"/>
  <text x="548" y="440" text-anchor="middle" font-size="7" font-weight="600" fill="#fff">AI AGENT</text>
  <text x="220" y="462" font-size="9" fill="#4B5563">Screen: final_approval</text>
  <text x="220" y="475" font-size="8" fill="#6B7280">Protection Rules · Backup Policies · Compliance Review</text>
  <text x="220" y="488" font-size="8" fill="#7C3AED">↳ approval_reviewer_ai</text>
  <text x="220" y="500" font-size="8" fill="#059669">Stateful: on_checkpoint_save/restore</text>

  <!-- Approve output -->
  <rect x="640" y="440" width="140" height="36" rx="6" fill="#D1FAE5" stroke="#059669" stroke-width="1.2" filter="url(#sh)"/>
  <text x="710" y="455" text-anchor="middle" font-size="10" font-weight="700" fill="#065F46">✓ Approved</text>
  <text x="710" y="468" text-anchor="middle" font-size="8" fill="#047857">yield_output</text>
  <line x1="590" y1="458" x2="638" y2="458" stroke="#059669" stroke-width="1.5" marker-end="url(#arrGreen)"/>
  <text x="614" y="452" text-anchor="middle" font-size="8" font-weight="600" fill="#059669">approve</text>

  <!-- Reject loop -->
  <path d="M210 480 L42 480 L42 336 L53 336" stroke="#DC2626" stroke-width="1.5" stroke-dasharray="5 3" fill="none" marker-end="url(#arrRed)"/>
  <rect x="50" y="470" width="115" height="18" rx="4" fill="#FEF2F2" stroke="#FECACA" stroke-width="1"/>
  <text x="108" y="483" text-anchor="middle" font-size="8" font-weight="600" fill="#DC2626">✗ reject + feedback</text>

  <!-- ═══════ MCP SERVER ═══════ -->

  <rect x="930" y="140" width="320" height="190" rx="10" fill="none" stroke="#059669" stroke-width="1.5" stroke-dasharray="6 3"/>
  <rect x="940" y="132" width="220" height="18" rx="4" fill="#ECFDF5"/>
  <text x="950" y="145" font-size="10" font-weight="600" fill="#059669">🔌  DATA DISCOVERY MCP SERVER</text>

  <text x="945" y="168" font-size="9" fill="#6B7280">MCPStreamableHTTPTool · http://localhost:3002/mcp</text>

  <rect x="945" y="180" width="290" height="55" rx="6" fill="#fff" stroke="#059669" stroke-width="1" filter="url(#sh)"/>
  <text x="955" y="196" font-size="10" font-weight="600" fill="#047857">discovery_tools.py</text>
  <text x="955" y="210" font-size="8" fill="#6B7280">🔹 run_discovery_scan    🔹 get_discovery_summary</text>
  <text x="955" y="223" font-size="8" fill="#6B7280">🔹 classify_data_sensitivity    🔹 get_exposure_analysis</text>

  <rect x="945" y="245" width="290" height="68" rx="6" fill="#fff" stroke="#059669" stroke-width="1" filter="url(#sh)"/>
  <text x="955" y="261" font-size="10" font-weight="600" fill="#047857">inventory_tools.py</text>
  <text x="955" y="275" font-size="8" fill="#6B7280">🔹 get_inventory_summary    🔹 list_application_groups</text>
  <text x="955" y="288" font-size="8" fill="#6B7280">🔹 get_resiliency_plan    🔹 get_protection_policy_detail</text>
  <text x="955" y="301" font-size="8" fill="#6B7280">🔹 get_cyber_recoverability_blueprints</text>

  <path d="M890 206 L930 206" stroke="#059669" stroke-width="1" stroke-dasharray="4 2" marker-end="url(#arrGreen)"/>
  <path d="M860 345 L920 290 L943 290" stroke="#059669" stroke-width="1" stroke-dasharray="4 2" fill="none" marker-end="url(#arrGreen)"/>
  <circle cx="905" cy="203" r="7" fill="#059669"/>
  <text x="905" y="207" text-anchor="middle" font-size="7" font-weight="700" fill="#fff">4</text>

  <!-- ═══════ FOUNDRY AGENTS ═══════ -->

  <rect x="930" y="350" width="320" height="175" rx="10" fill="none" stroke="#7C3AED" stroke-width="1.5" stroke-dasharray="6 3"/>
  <rect x="940" y="342" width="260" height="18" rx="4" fill="#F5F3FF"/>
  <text x="950" y="355" font-size="10" font-weight="600" fill="#7C3AED">🤖  AZURE AI FOUNDRY  ·  Optional (Graceful Fallback)</text>

  <text x="945" y="378" font-size="9" fill="#6B7280">FoundryChatClient · AzureCliCredential</text>

  <rect x="945" y="390" width="145" height="34" rx="5" fill="#fff" stroke="#7C3AED" stroke-width="1" filter="url(#sh)"/>
  <text x="1018" y="404" text-anchor="middle" font-size="9" font-weight="600" fill="#5B21B6">source_selector_ai</text>
  <text x="1018" y="417" text-anchor="middle" font-size="7" fill="#6B7280">Source recommendations</text>

  <rect x="1100" y="390" width="145" height="34" rx="5" fill="#fff" stroke="#7C3AED" stroke-width="1" filter="url(#sh)"/>
  <text x="1173" y="404" text-anchor="middle" font-size="9" font-weight="600" fill="#5B21B6">configurator_ai</text>
  <text x="1173" y="417" text-anchor="middle" font-size="7" fill="#6B7280">Config settings</text>

  <rect x="945" y="432" width="145" height="34" rx="5" fill="#fff" stroke="#7C3AED" stroke-width="1" filter="url(#sh)"/>
  <text x="1018" y="446" text-anchor="middle" font-size="9" font-weight="600" fill="#5B21B6">discovery_analyst_ai</text>
  <text x="1018" y="459" text-anchor="middle" font-size="7" fill="#6B7280">Risk analysis</text>

  <rect x="1100" y="432" width="145" height="34" rx="5" fill="#fff" stroke="#7C3AED" stroke-width="1" filter="url(#sh)"/>
  <text x="1173" y="446" text-anchor="middle" font-size="9" font-weight="600" fill="#5B21B6">protection_advisor_ai</text>
  <text x="1173" y="459" text-anchor="middle" font-size="7" fill="#6B7280">SmartProtect rules</text>

  <rect x="945" y="474" width="145" height="34" rx="5" fill="#fff" stroke="#7C3AED" stroke-width="1" filter="url(#sh)"/>
  <text x="1018" y="488" text-anchor="middle" font-size="9" font-weight="600" fill="#5B21B6">resiliency_planner_ai</text>
  <text x="1018" y="501" text-anchor="middle" font-size="7" fill="#6B7280">3-2-1 plans</text>

  <rect x="1100" y="474" width="145" height="34" rx="5" fill="#fff" stroke="#7C3AED" stroke-width="1" filter="url(#sh)"/>
  <text x="1173" y="488" text-anchor="middle" font-size="9" font-weight="600" fill="#5B21B6">approval_reviewer_ai</text>
  <text x="1173" y="501" text-anchor="middle" font-size="7" fill="#6B7280">Compliance review</text>

  <!-- ═══════ FALLBACK DATA ═══════ -->

  <rect x="930" y="545" width="320" height="50" rx="10" fill="none" stroke="#F59E0B" stroke-width="1.5" stroke-dasharray="6 3"/>
  <rect x="940" y="537" width="160" height="18" rx="4" fill="#FFFBEB"/>
  <text x="950" y="550" font-size="10" font-weight="600" fill="#92400E">📄  FALLBACK DATA</text>
  <rect x="945" y="560" width="290" height="26" rx="5" fill="#fff" stroke="#F59E0B" stroke-width="1" filter="url(#sh)"/>
  <text x="1090" y="577" text-anchor="middle" font-size="9" fill="#92400E">backup_mock_data.json  ·  Used when Agent or MCP unavailable</text>

  <!-- ═══════ HITL PATTERN ═══════ -->

  <rect x="30" y="545" width="870" height="52" rx="8" fill="#F0F9FF" stroke="#BAE6FD" stroke-width="1"/>
  <text x="50" y="565" font-size="10" font-weight="600" fill="#0369A1">⏸  Human-in-the-Loop Pattern</text>
  <text x="50" y="582" font-size="9" fill="#6B7280">Every executor calls ctx.request_info(ScreenRequest) → SSE event → Frontend renders screen → User responds → ctx.send_message() to next executor</text>

  <!-- ═══════ ARCHITECTURE LEGEND ═══════ -->

  <line x1="30" y1="620" x2="1250" y2="620" stroke="#E5E7EB" stroke-width="1"/>
  <text x="40" y="645" font-size="12" font-weight="700" fill="#111827">Architecture Legend</text>

  <rect x="40" y="658" width="14" height="14" rx="3" fill="#EFF6FF" stroke="#2563EB" stroke-width="1"/>
  <text x="60" y="669" font-size="9" fill="#4B5563">Executor (Workflow Step)</text>

  <rect x="200" y="658" width="14" height="14" rx="3" fill="#7C3AED"/>
  <text x="220" y="669" font-size="9" fill="#4B5563">AI Agent (Foundry)</text>

  <rect x="340" y="658" width="14" height="14" rx="3" fill="#ECFDF5" stroke="#059669" stroke-width="1"/>
  <text x="360" y="669" font-size="9" fill="#4B5563">MCP Tools / Data</text>

  <rect x="490" y="658" width="14" height="14" rx="3" fill="#F59E0B"/>
  <text x="510" y="669" font-size="9" fill="#4B5563">Checkpoint / Persistence</text>

  <rect x="670" y="658" width="14" height="14" rx="3" fill="#F0F9FF" stroke="#0891B2" stroke-width="1"/>
  <text x="690" y="669" font-size="9" fill="#4B5563">Human-in-the-Loop</text>

  <line x1="40" y1="688" x2="70" y2="688" stroke="#4B5563" stroke-width="1.2" marker-end="url(#arr)"/>
  <text x="78" y="692" font-size="9" fill="#4B5563">Data Flow</text>

  <line x1="200" y1="688" x2="230" y2="688" stroke="#DC2626" stroke-width="1.2" stroke-dasharray="5 3" marker-end="url(#arrRed)"/>
  <text x="238" y="692" font-size="9" fill="#4B5563">Reject Loop</text>

  <line x1="340" y1="688" x2="370" y2="688" stroke="#059669" stroke-width="1.2" stroke-dasharray="4 2" marker-end="url(#arrGreen)"/>
  <text x="378" y="692" font-size="9" fill="#4B5563">MCP Tool Call</text>

  <line x1="490" y1="688" x2="520" y2="688" stroke="#7C3AED" stroke-width="1.2" stroke-dasharray="6 3"/>
  <text x="528" y="692" font-size="9" fill="#4B5563">Optional / Future</text>

  <!-- ═══════ REQUEST FLOW ═══════ -->

  <line x1="30" y1="712" x2="1250" y2="712" stroke="#E5E7EB" stroke-width="1"/>
  <text x="40" y="738" font-size="12" font-weight="700" fill="#111827">Request Flow</text>

  <text x="40" y="760" font-size="9" fill="#4B5563">
    <tspan fill="#7C3AED" font-weight="700">❶</tspan> User opens React SPA →
    <tspan fill="#2563EB" font-weight="700">❷</tspan> POST /api/sessions creates WorkflowSession →
    <tspan fill="#059669" font-weight="700">❸</tspan> SSE stream delivers ScreenRequest events →
    <tspan fill="#D97706" font-weight="700">❹</tspan> Executors call MCP tools + AI agents →
  </text>
  <text x="40" y="778" font-size="9" fill="#4B5563">
    <tspan fill="#DC2626" font-weight="700">❺</tspan> User reviews &amp; responds via POST /respond →
    <tspan fill="#0891B2" font-weight="700">❻</tspan> ApprovalGateway: approve → yield_output | reject → loop to ProtectionAdvisor →
    <tspan fill="#F59E0B" font-weight="700">❼</tspan> Checkpoints saved between supersteps
  </text>

  <!-- ═══════ KEY PATTERNS ═══════ -->

  <line x1="30" y1="800" x2="1250" y2="800" stroke="#E5E7EB" stroke-width="1"/>
  <text x="40" y="826" font-size="12" font-weight="700" fill="#111827">Key Patterns</text>

  <text x="40" y="848" font-size="9" fill="#4B5563">• <tspan font-weight="600">All 6 executors are agent-driven</tspan> — AI generates recommendations, graceful fallback to mock data when unavailable</text>
  <text x="40" y="864" font-size="9" fill="#4B5563">• <tspan font-weight="600">MCP Integration</tspan> — DiscoveryRunner, ProtectionAdvisor, and ResiliencyPlanner call Data Discovery MCP tools</text>
  <text x="40" y="880" font-size="9" fill="#4B5563">• <tspan font-weight="600">Checkpointing</tspan> — FileCheckpointStorage persists state between supersteps; executors implement on_checkpoint_save/restore</text>
  <text x="40" y="896" font-size="9" fill="#4B5563">• <tspan font-weight="600">Reject Loop</tspan> — ApprovalGateway → ProtectionAdvisor with feedback (max 50 iterations)</text>
  <text x="40" y="912" font-size="9" fill="#4B5563">• <tspan font-weight="600">Degradation Chain</tspan> — Agent unavailable → MCP unavailable → backup_mock_data.json</text>
</svg>
