<svg xmlns="http://www.w3.org/2000/svg" viewBox="0 0 1200 1420" font-family="Segoe UI, -apple-system, sans-serif">
  <defs>
    <marker id="arr" markerWidth="8" markerHeight="6" refX="8" refY="3" orient="auto"><polygon points="0 0,8 3,0 6" fill="#4B5563"/></marker>
    <marker id="arrBlue" markerWidth="8" markerHeight="6" refX="8" refY="3" orient="auto"><polygon points="0 0,8 3,0 6" fill="#2563EB"/></marker>
    <marker id="arrGreen" markerWidth="8" markerHeight="6" refX="8" refY="3" orient="auto"><polygon points="0 0,8 3,0 6" fill="#059669"/></marker>
    <marker id="arrAmber" markerWidth="8" markerHeight="6" refX="8" refY="3" orient="auto"><polygon points="0 0,8 3,0 6" fill="#D97706"/></marker>
    <marker id="arrPurple" markerWidth="8" markerHeight="6" refX="8" refY="3" orient="auto"><polygon points="0 0,8 3,0 6" fill="#7C3AED"/></marker>
    <marker id="arrRed" markerWidth="8" markerHeight="6" refX="8" refY="3" orient="auto"><polygon points="0 0,8 3,0 6" fill="#DC2626"/></marker>
    <marker id="arrLoop" markerWidth="8" markerHeight="6" refX="8" refY="3" orient="auto"><polygon points="0 0,8 3,0 6" fill="#0891B2"/></marker>
    <filter id="sh"><feDropShadow dx="0" dy="1" stdDeviation="2" flood-opacity="0.08"/></filter>
  </defs>

  <!-- Background -->
  <rect width="1200" height="1420" fill="#FAFBFC"/>

  <!-- ═══════ TITLE ═══════ -->
  <text x="600" y="36" text-anchor="middle" font-size="22" font-weight="700" fill="#111827">Microsoft Agent Framework — Workflow Execution Model</text>
  <text x="600" y="58" text-anchor="middle" font-size="12" fill="#6B7280">WorkflowBuilder · Directed Graph · Modified Pregel (BSP) · Superstep-based Processing</text>

  <!-- ═══════ SECTION 1: BUILDING WORKFLOWS ═══════ -->

  <line x1="40" y1="80" x2="1160" y2="80" stroke="#E5E7EB" stroke-width="1"/>
  <circle cx="56" cy="100" r="14" fill="#2563EB"/>
  <text x="56" y="105" text-anchor="middle" font-size="11" font-weight="700" fill="#fff">1</text>
  <text x="80" y="105" font-size="14" font-weight="700" fill="#111827">Building Workflows</text>
  <text x="80" y="122" font-size="10" fill="#6B7280">Workflows are constructed using the WorkflowBuilder class — a declarative, directed graph of Executors connected by Edges</text>

  <!-- WorkflowBuilder box -->
  <rect x="60" y="138" width="500" height="130" rx="10" fill="#EFF6FF" stroke="#2563EB" stroke-width="1.2" filter="url(#sh)"/>
  <text x="80" y="160" font-size="11" font-weight="600" fill="#1E40AF">WorkflowBuilder</text>

  <!-- Code-like flow -->
  <text x="80" y="182" font-size="10" fill="#4B5563" font-family="Consolas, monospace">builder = WorkflowBuilder(start_executor=processor)</text>
  <text x="80" y="198" font-size="10" fill="#4B5563" font-family="Consolas, monospace">builder.add_edge(processor, validator)</text>
  <text x="80" y="214" font-size="10" fill="#4B5563" font-family="Consolas, monospace">builder.add_edge(validator, formatter)</text>
  <text x="80" y="230" font-size="10" fill="#4B5563" font-family="Consolas, monospace">workflow = builder.build()</text>
  <text x="80" y="258" font-size="9" fill="#2563EB">↳ .build() triggers validation → returns immutable Workflow</text>

  <!-- Visual graph -->
  <rect x="620" y="138" width="520" height="130" rx="10" fill="#fff" stroke="#E5E7EB" stroke-width="1" filter="url(#sh)"/>
  <text x="640" y="160" font-size="11" font-weight="600" fill="#4B5563">Resulting Directed Graph</text>

  <rect x="660" y="175" width="110" height="36" rx="6" fill="#DBEAFE" stroke="#2563EB" stroke-width="1.2"/>
  <text x="715" y="192" text-anchor="middle" font-size="10" font-weight="600" fill="#1E40AF">processor</text>
  <text x="715" y="205" text-anchor="middle" font-size="8" fill="#6B7280">(Start)</text>
  <line x1="770" y1="193" x2="820" y2="193" stroke="#4B5563" stroke-width="1.2" marker-end="url(#arr)"/>

  <rect x="822" y="175" width="110" height="36" rx="6" fill="#F5F3FF" stroke="#7C3AED" stroke-width="1.2"/>
  <text x="877" y="197" text-anchor="middle" font-size="10" font-weight="600" fill="#5B21B6">validator</text>
  <line x1="932" y1="193" x2="982" y2="193" stroke="#4B5563" stroke-width="1.2" marker-end="url(#arr)"/>

  <rect x="984" y="175" width="110" height="36" rx="6" fill="#ECFDF5" stroke="#059669" stroke-width="1.2"/>
  <text x="1039" y="197" text-anchor="middle" font-size="10" font-weight="600" fill="#047857">formatter</text>

  <text x="660" y="240" font-size="9" fill="#6B7280">Edges define message routing · Each executor has @handler methods</text>
  <text x="660" y="255" font-size="9" fill="#6B7280">Messages flow along edges · Types checked at build time</text>

  <!-- ═══════ SECTION 2: WORKFLOW VALIDATION ═══════ -->

  <line x1="40" y1="290" x2="1160" y2="290" stroke="#E5E7EB" stroke-width="1"/>
  <circle cx="56" cy="310" r="14" fill="#059669"/>
  <text x="56" y="315" text-anchor="middle" font-size="11" font-weight="700" fill="#fff">2</text>
  <text x="80" y="315" font-size="14" font-weight="700" fill="#111827">Workflow Validation</text>
  <text x="80" y="332" font-size="10" fill="#6B7280">The framework performs comprehensive validation when .build() is called — catches errors before execution</text>

  <!-- 4 validation cards -->
  <rect x="60" y="348" width="260" height="80" rx="8" fill="#fff" stroke="#059669" stroke-width="1.2" filter="url(#sh)"/>
  <rect x="60" y="348" width="260" height="24" rx="8" fill="#ECFDF5"/>
  <text x="75" y="364" font-size="10" font-weight="600" fill="#047857">✓  Type Compatibility</text>
  <text x="75" y="386" font-size="9" fill="#4B5563">Ensures message types are compatible</text>
  <text x="75" y="400" font-size="9" fill="#4B5563">between connected executors' handlers</text>
  <text x="75" y="418" font-size="8" fill="#059669">@handler input types must match edge source output</text>

  <rect x="340" y="348" width="260" height="80" rx="8" fill="#fff" stroke="#2563EB" stroke-width="1.2" filter="url(#sh)"/>
  <rect x="340" y="348" width="260" height="24" rx="8" fill="#EFF6FF"/>
  <text x="355" y="364" font-size="10" font-weight="600" fill="#1E40AF">✓  Graph Connectivity</text>
  <text x="355" y="386" font-size="9" fill="#4B5563">Verifies all executors are reachable</text>
  <text x="355" y="400" font-size="9" fill="#4B5563">from the start executor via edges</text>
  <text x="355" y="418" font-size="8" fill="#2563EB">No orphan executors allowed</text>

  <rect x="620" y="348" width="260" height="80" rx="8" fill="#fff" stroke="#7C3AED" stroke-width="1.2" filter="url(#sh)"/>
  <rect x="620" y="348" width="260" height="24" rx="8" fill="#F5F3FF"/>
  <text x="635" y="364" font-size="10" font-weight="600" fill="#5B21B6">✓  Executor Binding</text>
  <text x="635" y="386" font-size="9" fill="#4B5563">Confirms all executors are properly</text>
  <text x="635" y="400" font-size="9" fill="#4B5563">bound and instantiated with IDs</text>
  <text x="635" y="418" font-size="8" fill="#7C3AED">Each executor must have unique id</text>

  <rect x="900" y="348" width="260" height="80" rx="8" fill="#fff" stroke="#D97706" stroke-width="1.2" filter="url(#sh)"/>
  <rect x="900" y="348" width="260" height="24" rx="8" fill="#FFFBEB"/>
  <text x="915" y="364" font-size="10" font-weight="600" fill="#92400E">✓  Edge Validation</text>
  <text x="915" y="386" font-size="9" fill="#4B5563">Checks for duplicate edges and</text>
  <text x="915" y="400" font-size="9" fill="#4B5563">invalid connections in the graph</text>
  <text x="915" y="418" font-size="8" fill="#D97706">No self-loops or duplicate add_edge calls</text>

  <!-- ═══════ SECTION 3: SUPERSTEP EXECUTION MODEL ═══════ -->

  <line x1="40" y1="452" x2="1160" y2="452" stroke="#E5E7EB" stroke-width="1"/>
  <circle cx="56" cy="472" r="14" fill="#D97706"/>
  <text x="56" y="477" text-anchor="middle" font-size="11" font-weight="700" fill="#fff">3</text>
  <text x="80" y="477" font-size="14" font-weight="700" fill="#111827">Execution Model: Supersteps</text>
  <text x="80" y="494" font-size="10" fill="#6B7280">Modified Pregel execution model — Bulk Synchronous Parallel (BSP) approach with superstep-based processing</text>

  <!-- Superstep N detail -->
  <rect x="60" y="510" width="1080" height="250" rx="12" fill="none" stroke="#D97706" stroke-width="1.5" stroke-dasharray="6 3"/>
  <rect x="70" y="502" width="140" height="18" rx="4" fill="#FFFBEB"/>
  <text x="80" y="515" font-size="10" font-weight="700" fill="#D97706">SUPERSTEP  N</text>

  <!-- Phase 1: Collect -->
  <rect x="90" y="535" width="190" height="80" rx="8" fill="#fff" stroke="#2563EB" stroke-width="1.5" filter="url(#sh)"/>
  <rect x="90" y="535" width="190" height="22" rx="8" fill="#2563EB"/>
  <text x="185" y="550" text-anchor="middle" font-size="10" font-weight="700" fill="#fff">PHASE 1</text>
  <text x="185" y="575" text-anchor="middle" font-size="11" font-weight="600" fill="#1E40AF">Collect All</text>
  <text x="185" y="590" text-anchor="middle" font-size="11" font-weight="600" fill="#1E40AF">Pending Messages</text>
  <text x="185" y="607" text-anchor="middle" font-size="8" fill="#6B7280">from previous superstep</text>

  <line x1="280" y1="575" x2="340" y2="575" stroke="#2563EB" stroke-width="1.5" marker-end="url(#arrBlue)"/>
  <circle cx="310" cy="567" r="8" fill="#EFF6FF" stroke="#2563EB" stroke-width="1"/>
  <text x="310" y="571" text-anchor="middle" font-size="8" font-weight="700" fill="#2563EB">→</text>

  <!-- Phase 2: Route -->
  <rect x="345" y="535" width="190" height="80" rx="8" fill="#fff" stroke="#7C3AED" stroke-width="1.5" filter="url(#sh)"/>
  <rect x="345" y="535" width="190" height="22" rx="8" fill="#7C3AED"/>
  <text x="440" y="550" text-anchor="middle" font-size="10" font-weight="700" fill="#fff">PHASE 2</text>
  <text x="440" y="575" text-anchor="middle" font-size="11" font-weight="600" fill="#5B21B6">Route Messages</text>
  <text x="440" y="590" text-anchor="middle" font-size="11" font-weight="600" fill="#5B21B6">by Type &amp; Edges</text>
  <text x="440" y="607" text-anchor="middle" font-size="8" fill="#6B7280">edge conditions evaluated</text>

  <line x1="535" y1="575" x2="595" y2="575" stroke="#7C3AED" stroke-width="1.5" marker-end="url(#arrPurple)"/>
  <circle cx="565" cy="567" r="8" fill="#F5F3FF" stroke="#7C3AED" stroke-width="1"/>
  <text x="565" y="571" text-anchor="middle" font-size="8" font-weight="700" fill="#7C3AED">→</text>

  <!-- Phase 3: Execute -->
  <rect x="600" y="535" width="190" height="80" rx="8" fill="#fff" stroke="#059669" stroke-width="1.5" filter="url(#sh)"/>
  <rect x="600" y="535" width="190" height="22" rx="8" fill="#059669"/>
  <text x="695" y="550" text-anchor="middle" font-size="10" font-weight="700" fill="#fff">PHASE 3</text>
  <text x="695" y="575" text-anchor="middle" font-size="11" font-weight="600" fill="#047857">Execute All Target</text>
  <text x="695" y="590" text-anchor="middle" font-size="11" font-weight="600" fill="#047857">Executors (Parallel)</text>
  <text x="695" y="607" text-anchor="middle" font-size="8" fill="#6B7280">concurrent within superstep</text>

  <!-- Barrier arrow down -->
  <line x1="695" y1="615" x2="695" y2="652" stroke="#DC2626" stroke-width="2" marker-end="url(#arrRed)"/>
  <rect x="710" y="625" width="120" height="16" rx="3" fill="#FEF2F2" stroke="#FECACA" stroke-width="1"/>
  <text x="770" y="636" text-anchor="middle" font-size="8" font-weight="600" fill="#DC2626">⏳ BARRIER: wait all</text>

  <!-- Phase 4: Emit -->
  <rect x="600" y="657" width="190" height="80" rx="8" fill="#fff" stroke="#D97706" stroke-width="1.5" filter="url(#sh)"/>
  <rect x="600" y="657" width="190" height="22" rx="8" fill="#D97706"/>
  <text x="695" y="672" text-anchor="middle" font-size="10" font-weight="700" fill="#fff">PHASE 4</text>
  <text x="695" y="697" text-anchor="middle" font-size="11" font-weight="600" fill="#92400E">Emit Events &amp;</text>
  <text x="695" y="712" text-anchor="middle" font-size="11" font-weight="600" fill="#92400E">New Messages</text>
  <text x="695" y="729" text-anchor="middle" font-size="8" fill="#6B7280">checkpoint saved here</text>

  <line x1="600" y1="697" x2="540" y2="697" stroke="#D97706" stroke-width="1.5" marker-end="url(#arrAmber)"/>

  <!-- Phase 5: Next superstep -->
  <rect x="345" y="657" width="190" height="80" rx="8" fill="#fff" stroke="#0891B2" stroke-width="1.5" filter="url(#sh)"/>
  <rect x="345" y="657" width="190" height="22" rx="8" fill="#0891B2"/>
  <text x="440" y="672" text-anchor="middle" font-size="10" font-weight="700" fill="#fff">PHASE 5</text>
  <text x="440" y="697" text-anchor="middle" font-size="11" font-weight="600" fill="#155E75">Start Next</text>
  <text x="440" y="712" text-anchor="middle" font-size="11" font-weight="600" fill="#155E75">Superstep</text>
  <text x="440" y="729" text-anchor="middle" font-size="8" fill="#6B7280">or workflow complete</text>

  <!-- Loop arrow back to Phase 1 -->
  <path d="M345 697 L180 697 L180 625 L185 620" stroke="#0891B2" stroke-width="1.5" stroke-dasharray="5 3" fill="none" marker-end="url(#arrLoop)"/>
  <text x="170" y="660" font-size="8" fill="#0891B2" transform="rotate(-90,170,660)">loop N+1</text>

  <!-- ═══════ SECTION 4: SYNCHRONIZATION BARRIER ═══════ -->

  <line x1="40" y1="780" x2="1160" y2="780" stroke="#E5E7EB" stroke-width="1"/>
  <circle cx="56" cy="800" r="14" fill="#DC2626"/>
  <text x="56" y="805" text-anchor="middle" font-size="11" font-weight="700" fill="#fff">4</text>
  <text x="80" y="805" font-size="14" font-weight="700" fill="#111827">Synchronization Barrier</text>
  <text x="80" y="822" font-size="10" fill="#6B7280">All triggered executors run in parallel, but the workflow does NOT advance until every executor completes</text>

  <!-- Fan-out example -->
  <rect x="60" y="840" width="1080" height="175" rx="10" fill="#FEF2F2" stroke="#FECACA" stroke-width="1"/>
  <text x="80" y="860" font-size="10" font-weight="600" fill="#DC2626">Fan-out Example — Blocking Behavior</text>

  <!-- Dispatcher -->
  <rect x="90" y="878" width="120" height="36" rx="6" fill="#DBEAFE" stroke="#2563EB" stroke-width="1.2"/>
  <text x="150" y="895" text-anchor="middle" font-size="10" font-weight="600" fill="#1E40AF">dispatcher</text>
  <text x="150" y="908" text-anchor="middle" font-size="8" fill="#6B7280">(Start)</text>

  <!-- Fan-out arrows -->
  <path d="M210 888 L260 870" stroke="#4B5563" stroke-width="1.2" fill="none" marker-end="url(#arr)"/>
  <path d="M210 902 L260 920" stroke="#4B5563" stroke-width="1.2" fill="none" marker-end="url(#arr)"/>
  <text x="230" y="888" font-size="8" fill="#6B7280">fan-out</text>

  <!-- Path A: chain -->
  <rect x="265" y="855" width="90" height="30" rx="5" fill="#ECFDF5" stroke="#059669" stroke-width="1"/>
  <text x="310" y="874" text-anchor="middle" font-size="9" font-weight="600" fill="#047857">step1</text>
  <line x1="355" y1="870" x2="385" y2="870" stroke="#4B5563" stroke-width="1" marker-end="url(#arr)"/>
  <rect x="390" y="855" width="90" height="30" rx="5" fill="#ECFDF5" stroke="#059669" stroke-width="1"/>
  <text x="435" y="874" text-anchor="middle" font-size="9" font-weight="600" fill="#047857">step2</text>
  <line x1="480" y1="870" x2="510" y2="870" stroke="#4B5563" stroke-width="1" marker-end="url(#arr)"/>
  <rect x="515" y="855" width="90" height="30" rx="5" fill="#ECFDF5" stroke="#059669" stroke-width="1"/>
  <text x="560" y="874" text-anchor="middle" font-size="9" font-weight="600" fill="#047857">step3</text>
  <text x="265" y="850" font-size="8" font-weight="600" fill="#059669">Path A — chained (3 supersteps)</text>

  <!-- Path B: long-running -->
  <rect x="265" y="908" width="220" height="30" rx="5" fill="#FFFBEB" stroke="#D97706" stroke-width="1"/>
  <text x="375" y="924" text-anchor="middle" font-size="9" font-weight="600" fill="#92400E">long_running_executor</text>
  <text x="375" y="935" text-anchor="middle" font-size="8" fill="#D97706">⏱ slow</text>
  <text x="265" y="905" font-size="8" font-weight="600" fill="#D97706">Path B — single executor</text>

  <!-- Barrier line -->
  <line x1="620" y1="845" x2="620" y2="950" stroke="#DC2626" stroke-width="2" stroke-dasharray="4 3"/>
  <text x="635" y="862" font-size="9" font-weight="700" fill="#DC2626">BARRIER</text>
  <text x="635" y="876" font-size="8" fill="#DC2626">wait for</text>
  <text x="635" y="888" font-size="8" fill="#DC2626">ALL paths</text>

  <!-- After barrier -->
  <rect x="660" y="878" width="120" height="36" rx="6" fill="#F5F3FF" stroke="#7C3AED" stroke-width="1.2"/>
  <text x="720" y="900" text-anchor="middle" font-size="10" font-weight="600" fill="#5B21B6">aggregator</text>

  <line x1="605" y1="870" x2="622" y2="870" stroke="#059669" stroke-width="1" stroke-dasharray="3 2"/>
  <line x1="485" y1="927" x2="622" y2="927" stroke="#D97706" stroke-width="1" stroke-dasharray="3 2"/>
  <path d="M622 870 L640 870 L640 896 L658 896" stroke="#4B5563" stroke-width="1.2" fill="none" marker-end="url(#arr)"/>
  <path d="M622 927 L640 927 L640 896" stroke="#4B5563" stroke-width="1.2" fill="none"/>

  <!-- Warning box -->
  <rect x="820" y="860" width="300" height="50" rx="6" fill="#FFFBEB" stroke="#F59E0B" stroke-width="1"/>
  <text x="835" y="880" font-size="9" font-weight="600" fill="#92400E">⚠  Path A's step2 &amp; step3 CANNOT advance</text>
  <text x="835" y="895" font-size="9" fill="#92400E">until Path B's long_running_executor completes</text>

  <!-- Solution box -->
  <rect x="820" y="920" width="300" height="36" rx="6" fill="#ECFDF5" stroke="#059669" stroke-width="1"/>
  <text x="835" y="936" font-size="9" font-weight="600" fill="#047857">💡 Solution: consolidate step1→step2→step3</text>
  <text x="835" y="950" font-size="9" fill="#047857">into one executor for true parallel execution</text>

  <!-- ═══════ SECTION 5: WHY SUPERSTEPS ═══════ -->

  <line x1="40" y1="1030" x2="1160" y2="1030" stroke="#E5E7EB" stroke-width="1"/>
  <circle cx="56" cy="1050" r="14" fill="#7C3AED"/>
  <text x="56" y="1055" text-anchor="middle" font-size="11" font-weight="700" fill="#fff">5</text>
  <text x="80" y="1055" font-size="14" font-weight="700" fill="#111827">Why Supersteps? — BSP Guarantees</text>
  <text x="80" y="1072" font-size="10" fill="#6B7280">The Bulk Synchronous Parallel model provides critical guarantees for production workflows</text>

  <!-- 3 guarantee cards -->
  <rect x="60" y="1090" width="350" height="95" rx="8" fill="#fff" stroke="#2563EB" stroke-width="1.2" filter="url(#sh)"/>
  <rect x="60" y="1090" width="350" height="28" rx="8" fill="#2563EB"/>
  <text x="80" y="1110" font-size="11" font-weight="700" fill="#fff">🔄  Deterministic Execution</text>
  <text x="75" y="1136" font-size="9.5" fill="#4B5563">Given the same input, the workflow always</text>
  <text x="75" y="1152" font-size="9.5" fill="#4B5563">executes in the same order — reproducible results</text>
  <text x="75" y="1175" font-size="8" fill="#2563EB">No non-determinism from thread scheduling</text>

  <rect x="430" y="1090" width="350" height="95" rx="8" fill="#fff" stroke="#059669" stroke-width="1.2" filter="url(#sh)"/>
  <rect x="430" y="1090" width="350" height="28" rx="8" fill="#059669"/>
  <text x="450" y="1110" font-size="11" font-weight="700" fill="#fff">💾  Reliable Checkpointing</text>
  <text x="445" y="1136" font-size="9.5" fill="#4B5563">State can be saved at superstep boundaries</text>
  <text x="445" y="1152" font-size="9.5" fill="#4B5563">for fault tolerance — resume after crash</text>
  <text x="445" y="1175" font-size="8" fill="#059669">FileCheckpointStorage saves between supersteps</text>

  <rect x="800" y="1090" width="350" height="95" rx="8" fill="#fff" stroke="#7C3AED" stroke-width="1.2" filter="url(#sh)"/>
  <rect x="800" y="1090" width="350" height="28" rx="8" fill="#7C3AED"/>
  <text x="820" y="1110" font-size="11" font-weight="700" fill="#fff">🧠  Simpler Reasoning</text>
  <text x="815" y="1136" font-size="9.5" fill="#4B5563">No race conditions between supersteps —</text>
  <text x="815" y="1152" font-size="9.5" fill="#4B5563">each sees a consistent view of all messages</text>
  <text x="815" y="1175" font-size="8" fill="#7C3AED">Safe for human-in-the-loop &amp; agent workflows</text>

  <!-- ═══════ SECTION 6: EXECUTION MODES ═══════ -->

  <line x1="40" y1="1210" x2="1160" y2="1210" stroke="#E5E7EB" stroke-width="1"/>
  <circle cx="56" cy="1230" r="14" fill="#0891B2"/>
  <text x="56" y="1235" text-anchor="middle" font-size="11" font-weight="700" fill="#fff">6</text>
  <text x="80" y="1235" font-size="14" font-weight="700" fill="#111827">Workflow Execution Modes</text>

  <!-- Streaming -->
  <rect x="60" y="1258" width="530" height="75" rx="8" fill="#fff" stroke="#2563EB" stroke-width="1.2" filter="url(#sh)"/>
  <rect x="60" y="1258" width="530" height="24" rx="8" fill="#EFF6FF"/>
  <text x="80" y="1274" font-size="10" font-weight="600" fill="#1E40AF">▶  Streaming Execution</text>
  <text x="75" y="1298" font-size="10" fill="#4B5563" font-family="Consolas, monospace">async for event in workflow.run(msg, stream=True):</text>
  <text x="75" y="1314" font-size="10" fill="#4B5563" font-family="Consolas, monospace">    print(event.type, event.data)</text>
  <text x="75" y="1328" font-size="8" fill="#2563EB">Events: status · request_info · output · error</text>

  <!-- Non-streaming -->
  <rect x="610" y="1258" width="530" height="75" rx="8" fill="#fff" stroke="#059669" stroke-width="1.2" filter="url(#sh)"/>
  <rect x="610" y="1258" width="530" height="24" rx="8" fill="#ECFDF5"/>
  <text x="630" y="1274" font-size="10" font-weight="600" fill="#047857">⏹  Non-streaming Execution</text>
  <text x="625" y="1298" font-size="10" fill="#4B5563" font-family="Consolas, monospace">events = await workflow.run(msg)</text>
  <text x="625" y="1314" font-size="10" fill="#4B5563" font-family="Consolas, monospace">result = events.get_outputs()</text>
  <text x="625" y="1328" font-size="8" fill="#059669">Waits for full completion · Returns all events</text>

  <!-- ═══════ FOOTER ═══════ -->

  <line x1="40" y1="1360" x2="1160" y2="1360" stroke="#E5E7EB" stroke-width="1"/>
  <text x="600" y="1385" text-anchor="middle" font-size="10" fill="#9CA3AF">Microsoft Agent Framework · Workflow Builder &amp; Execution · Modified Pregel (BSP) · learn.microsoft.com/agent-framework</text>
  <text x="600" y="1402" text-anchor="middle" font-size="9" fill="#D1D5DB">Related: Executors · Edges · Events · State Management · Agents in Workflows · Checkpointing · Visualization</text>
</svg>
